<?xml version="1.0" standalone="no"?>
<!DOCTYPE svg PUBLIC "-//W3C//DTD SVG 20010904//EN"
 "http://www.w3.org/TR/2001/REC-SVG-20010904/DTD/svg10.dtd">
<svg version="1.0" xmlns="http://www.w3.org/2000/svg"
 width="700.000000pt" height="700.000000pt" viewBox="0 0 700.000000 700.000000"
 preserveAspectRatio="xMidYMid meet">
<metadata>
Created by potrace 1.14, written by Peter Selinger 2001-2017
</metadata>
<g transform="translate(0.000000,700.000000) scale(0.100000,-0.100000)"
fill="#000000" stroke="none">
<path d="M1569 6946 c-2 -2 -29 -7 -59 -10 -161 -19 -378 -82 -525 -152 -374
-178 -671 -484 -838 -864 -26 -60 -83 -228 -92 -275 -23 -107 -36 -189 -42
-250 -9 -96 -8 -3607 1 -3720 4 -49 9 -99 11 -110 3 -11 7 -31 9 -45 25 -150
105 -376 177 -505 142 -255 350 -478 584 -627 65 -41 216 -119 295 -152 54
-22 198 -66 239 -72 20 -3 38 -7 41 -9 3 -2 23 -6 45 -9 22 -3 69 -10 105 -15
103 -15 3811 -8 3880 8 202 44 352 91 429 132 20 10 39 19 43 19 17 0 210 118
283 174 76 58 224 199 293 278 58 67 162 232 212 334 76 156 133 337 155 494
3 25 9 59 12 75 9 43 10 3645 1 3735 -11 113 -16 149 -32 225 -68 320 -236
622 -478 857 -178 173 -347 281 -603 383 -48 19 -243 71 -303 80 -23 4 -54 9
-70 12 -29 7 -3767 15 -3773 9z m2434 -1466 l147 0 0 -514 c0 -402 3 -515 13
-518 6 -2 202 -3 435 -3 l422 1 0 -347 c0 -322 -1 -347 -17 -350 -10 -3 -206
-4 -435 -4 l-418 1 0 -663 c0 -731 -2 -710 61 -732 21 -7 162 -11 420 -11
l389 0 0 -385 0 -386 -567 3 c-556 4 -570 4 -643 27 -253 75 -428 263 -486
522 -16 68 -17 217 -19 1714 l-1 1640 106 5 c58 3 182 4 275 3 94 -1 236 -2
318 -3z m-1162 -902 c0 -16 0 -989 0 -1003 -1 -11 -1005 -14 -1016 -3 -5 4 -8
598 -5 951 l0 67 510 0 c401 0 510 -3 511 -12z"/>
</g>
</svg>
