<svg width="41" height="41" viewBox="0 0 41 41" fill="none" xmlns="http://www.w3.org/2000/svg">
<g id="Group 1">
<g id="&#240;&#159;&#166;&#134; icon &#34;users&#34;">
<path id="Subtract" fill-rule="evenodd" clip-rule="evenodd" d="M0.0361328 10.3027C0.0361328 4.77989 4.51329 0.302734 10.0361 0.302734H30.0361C35.559 0.302734 40.0361 4.77989 40.0361 10.3027V30.3027C40.0361 35.8256 35.559 40.3027 30.0361 40.3027H10.0361C4.51329 40.3027 0.0361328 35.8256 0.0361328 30.3027V10.3027ZM23.6729 31.8101C22.3887 31.8101 21.3471 31.4098 20.5481 30.6094C19.749 29.8089 19.3503 28.7396 19.3519 27.4016V8.89909H24.3009V14.9601H29.4068V19.054H24.3009V26.5429C24.3009 27.2944 24.6764 27.2935 25.3122 27.2919L25.4023 27.2918H29.4068V31.8126L23.6729 31.8101ZM10.6504 14.1192H16.6447V20.1135H10.6504V14.1192Z" fill="#5BBB7B"/>
</g>
</g>
</svg>
