<svg width="59" height="53" viewBox="0 0 59 53" fill="none" xmlns="http://www.w3.org/2000/svg">
<circle cx="38.0439" cy="32.2563" r="20" fill="#FBF7ED"/>
<g clip-path="url(#clip0_1_2632)">
<path d="M28.2471 13.2251C28.2471 8.69002 24.5661 4.94385 20.0439 4.94385C15.5276 4.94385 11.8408 8.68479 11.8408 13.2251C11.8408 17.7483 15.5207 21.4282 20.0439 21.4282C24.5671 21.4282 28.2471 17.7483 28.2471 13.2251ZM14.1846 13.2251C14.1846 9.95111 16.8131 7.2876 20.0439 7.2876C23.2748 7.2876 25.9033 9.95111 25.9033 13.2251C25.9033 16.456 23.2748 19.0845 20.0439 19.0845C16.8131 19.0845 14.1846 16.456 14.1846 13.2251Z" fill="#1F4B3F"/>
<path d="M32.9346 13.2251C32.9346 6.11479 27.1626 0.256348 20.0439 0.256348C13.324 0.256348 7.15332 5.62494 7.15332 13.2251C7.15332 17.9637 11.7929 25.1244 14.5475 29.0591C11.4853 29.6745 7.15332 31.2638 7.15332 34.397C7.15332 38.8774 15.4987 40.2563 20.0439 40.2563C24.5896 40.2563 32.9346 38.8774 32.9346 34.397C32.9346 31.2637 28.6022 29.6745 25.5404 29.0591C28.2809 25.1446 32.9346 17.9692 32.9346 13.2251ZM9.49707 13.2251C9.49707 6.66236 14.9717 2.6001 20.0439 2.6001C25.8595 2.6001 30.5908 7.36643 30.5908 13.2251C30.5908 18.1879 23.6563 27.9706 20.0439 32.5333C16.4311 27.9715 9.49707 18.191 9.49707 13.2251ZM30.5908 34.397C30.5908 36.3549 24.8517 37.9126 20.0439 37.9126C15.2426 37.9126 9.49707 36.3536 9.49707 34.397C9.49707 33.4642 11.5905 31.8473 16.0658 31.1718C17.775 33.4912 19.0615 35.048 19.1417 35.1447C19.3643 35.4134 19.695 35.5688 20.0439 35.5688C20.3929 35.5688 20.7236 35.4134 20.9462 35.1447C21.0264 35.048 22.3129 33.4912 24.0221 31.1718C28.4974 31.8473 30.5908 33.4642 30.5908 34.397Z" fill="#1F4B3F"/>
</g>
<defs>
<clipPath id="clip0_1_2632">
<rect width="40" height="40" fill="white" transform="translate(0.0439453 0.256348)"/>
</clipPath>
</defs>
</svg>
