<svg width="61" height="61" viewBox="0 0 61 61" fill="none" xmlns="http://www.w3.org/2000/svg">
<circle cx="30.1348" cy="30.2563" r="30" fill="#1F4B3F"/>
<path d="M21.5648 32.5563H27.1148L26.7698 31.0563H21.9098L21.5648 32.5563ZM24.3098 27.7263L25.9748 31.6263L26.0198 32.0613L27.4448 35.2563H29.4398L24.3098 24.1713L19.1798 35.2563H21.1748L22.6298 31.9713L22.6598 31.5813L24.3098 27.7263ZM31.2053 34.4913C31.2053 34.7713 31.3053 35.0163 31.5053 35.2263C31.7053 35.4363 31.9553 35.5413 32.2553 35.5413C32.5553 35.5413 32.8053 35.4363 33.0053 35.2263C33.2153 35.0163 33.3203 34.7713 33.3203 34.4913C33.3203 34.2013 33.2153 33.9563 33.0053 33.7563C32.8053 33.5463 32.5553 33.4413 32.2553 33.4413C31.9553 33.4413 31.7053 33.5463 31.5053 33.7563C31.3053 33.9563 31.2053 34.2013 31.2053 34.4913ZM34.6796 26.3913H37.4396V35.2563H39.2246V26.3913H41.9996V24.7563H34.6796V26.3913Z" fill="white"/>
</svg>
