<svg width="17" height="17" viewBox="0 0 17 17" fill="none" xmlns="http://www.w3.org/2000/svg">
<g clip-path="url(#clip0_1_997)">
<path d="M1.30143 15.5897H2.9681C3.61143 15.5897 4.13477 15.0664 4.13477 14.4231V6.75639C4.13477 6.11306 3.61143 5.58972 2.9681 5.58972H1.30143C0.658099 5.58972 0.134766 6.11306 0.134766 6.75639V14.4231C0.134766 15.0664 0.658099 15.5897 1.30143 15.5897Z" fill="#222222"/>
<path d="M8.65543 0.756348C7.98877 0.756348 7.65543 1.08968 7.65543 2.75635C7.65543 4.34035 6.12143 5.61501 5.13477 6.27168V14.5303C6.2021 15.0243 8.33877 15.7563 11.6554 15.7563H12.7221C14.0221 15.7563 15.1288 14.823 15.3488 13.543L16.0954 9.20968C16.3754 7.57634 15.1221 6.08968 13.4688 6.08968H10.3221C10.3221 6.08968 10.8221 5.08968 10.8221 3.42301C10.8221 1.42301 9.3221 0.756348 8.65543 0.756348Z" fill="#222222"/>
</g>
<defs>
<clipPath id="clip0_1_997">
<rect width="16" height="16" fill="white" transform="translate(0.134766 0.256348)"/>
</clipPath>
</defs>
</svg>
