<svg width="17" height="17" viewBox="0 0 17 17" fill="none" xmlns="http://www.w3.org/2000/svg">
<g clip-path="url(#clip0_201_12)">
<path d="M15.6903 0.541992H5.91257C5.6669 0.541992 5.46811 0.740784 5.46811 0.986451C5.46811 1.23212 5.6669 1.43091 5.91257 1.43091H14.6174L0.264984 15.7833C0.0913594 15.957 0.0913594 16.2382 0.264984 16.4118C0.351776 16.4986 0.465526 16.542 0.579234 16.542C0.692943 16.542 0.806651 16.4986 0.893484 16.4118L15.2459 2.05937V10.7642C15.2459 11.0099 15.4447 11.2087 15.6904 11.2087C15.936 11.2087 16.1348 11.0099 16.1348 10.7642V0.986451C16.1348 0.740784 15.936 0.541992 15.6903 0.541992Z" fill="white"/>
</g>
<defs>
<clipPath id="clip0_201_12">
<rect width="16" height="16" fill="white" transform="translate(0.134766 0.541992)"/>
</clipPath>
</defs>
</svg>
