<svg width="19" height="46" viewBox="0 0 19 46" fill="none" xmlns="http://www.w3.org/2000/svg">
<circle cx="9.13477" cy="22.2563" r="9" fill="#5BBB7B" fill-opacity="0.15"/>
<path d="M12.5946 20.926C12.5946 20.8144 12.5499 20.7028 12.4696 20.6224L11.8624 20.0153C11.7821 19.9349 11.6705 19.8903 11.5589 19.8903C11.4473 19.8903 11.3357 19.9349 11.2553 20.0153L8.32673 22.9483L7.01423 21.6313C6.93387 21.551 6.82227 21.5063 6.71066 21.5063C6.59905 21.5063 6.48744 21.551 6.40709 21.6313L5.79994 22.2385C5.71959 22.3188 5.67494 22.4305 5.67494 22.5421C5.67494 22.6537 5.71959 22.7653 5.79994 22.8456L7.41602 24.4617L8.02316 25.0688C8.10352 25.1492 8.21512 25.1938 8.32673 25.1938C8.43834 25.1938 8.54994 25.1492 8.6303 25.0688L9.23744 24.4617L12.4696 21.2296C12.5499 21.1492 12.5946 21.0376 12.5946 20.926Z" fill="#5BBB7B"/>
</svg>
