<svg width="17" height="17" viewBox="0 0 17 17" fill="none" xmlns="http://www.w3.org/2000/svg">
<g clip-path="url(#clip0_1_1000)">
<path d="M14.9681 0.922974H13.3014C12.6581 0.922974 12.1348 1.44631 12.1348 2.08964V9.75632C12.1348 10.3997 12.6581 10.923 13.3014 10.923H14.9681C15.6114 10.923 16.1348 10.3997 16.1348 9.75632V2.08964C16.1348 1.44631 15.6114 0.922974 14.9681 0.922974Z" fill="#697488"/>
<path d="M3.54736 0.756348C2.24736 0.756348 1.14069 1.68968 0.920691 2.96968L0.174023 7.30301C-0.105977 8.93634 1.14736 10.423 2.80069 10.423H5.94736C5.94736 10.423 5.44736 11.423 5.44736 13.0897C5.44736 15.0897 6.94736 15.7563 7.61403 15.7563C8.2807 15.7563 8.61403 15.423 8.61403 13.7563C8.61403 12.1723 10.148 10.8977 11.1347 10.241V1.98235C10.0674 1.48835 7.9307 0.756348 4.61403 0.756348H3.54736Z" fill="#697488"/>
</g>
<defs>
<clipPath id="clip0_1_1000">
<rect width="16" height="16" fill="white" transform="translate(0.134766 0.256348)"/>
</clipPath>
</defs>
</svg>
