<svg width="59" height="53" viewBox="0 0 59 53" fill="none" xmlns="http://www.w3.org/2000/svg">
<circle cx="38.0439" cy="32.2563" r="20" fill="#FBF7ED"/>
<g clip-path="url(#clip0_1_2612)">
<path d="M20.0439 0.256348C9.01594 0.256348 0.0439453 9.22826 0.0439453 20.2563C0.0439453 31.2844 9.01594 40.2563 20.0439 40.2563C31.0719 40.2563 40.0439 31.2843 40.0439 20.2563C40.0439 9.22834 31.072 0.256348 20.0439 0.256348ZM20.0439 37.9131C10.308 37.9131 2.38716 29.9923 2.38716 20.2563C2.38716 10.5204 10.308 2.59956 20.0439 2.59956C29.7799 2.59956 37.7007 10.5203 37.7007 20.2563C37.7007 29.9924 29.78 37.9131 20.0439 37.9131Z" fill="#1F4B3F"/>
<path d="M20.0437 4.94275C19.3966 4.94275 18.8721 5.46732 18.8721 6.11435C18.8721 6.76139 19.3966 7.28596 20.0437 7.28596C27.1955 7.28596 33.014 13.1044 33.014 20.2563C33.014 20.9034 33.5386 21.4279 34.1857 21.4279C34.8327 21.4279 35.3573 20.9034 35.3573 20.2563C35.3573 11.8123 28.4877 4.94275 20.0437 4.94275Z" fill="#1F4B3F"/>
<path d="M6.93013 20.1766C6.93169 19.5291 6.40837 19.0034 5.76165 19.0018C5.76087 19.0018 5.7593 19.0018 5.75852 19.0018C5.11258 19.0018 4.58848 19.5244 4.58692 20.1703C4.58536 20.8178 5.10867 21.3435 5.7554 21.345C6.40291 21.3467 6.92857 20.8233 6.93013 20.1766Z" fill="#1F4B3F"/>
<path d="M6.81823 24.4077C6.66904 24.4077 6.5183 24.4358 6.37224 24.4961C5.77394 24.7428 5.48885 25.4279 5.73489 26.0262C5.9817 26.6236 6.6667 26.9095 7.265 26.6627C7.8633 26.4158 8.14839 25.7316 7.90157 25.1333C7.7156 24.6811 7.2782 24.4077 6.81823 24.4077Z" fill="#1F4B3F"/>
<path d="M9.86888 28.9956C9.57051 28.9956 9.27214 29.1089 9.04329 29.3355C8.58402 29.7916 8.58167 30.5336 9.03782 30.9929C9.03782 30.9929 9.03782 30.9929 9.03782 30.9921C9.49318 31.4514 10.2352 31.4545 10.6945 30.9983C11.1537 30.543 11.1561 29.801 10.7007 29.3417C10.4711 29.1104 10.1704 28.9956 9.86888 28.9956Z" fill="#1F4B3F"/>
<path d="M14.8877 32.1715C14.7393 32.109 14.5854 32.0793 14.4339 32.0793C13.9769 32.0793 13.5419 32.3488 13.3537 32.7971C13.1029 33.393 13.3826 34.0804 13.9793 34.3312C14.576 34.5819 15.2626 34.3023 15.5133 33.7055C15.764 33.1088 15.4844 32.4222 14.8877 32.1715Z" fill="#1F4B3F"/>
<path d="M7.3279 13.6782C6.73194 13.4259 6.0446 13.7039 5.79231 14.2999C5.54003 14.8959 5.81809 15.5832 6.41404 15.8363C6.56323 15.8996 6.71788 15.9292 6.87019 15.9292C7.32712 15.9292 7.76061 15.6605 7.94963 15.2146C8.20191 14.6185 7.92385 13.9305 7.3279 13.6782Z" fill="#1F4B3F"/>
<path d="M9.14301 9.3667C8.68296 9.8212 8.67827 10.5632 9.13285 11.0233C9.36171 11.2553 9.66398 11.3717 9.96626 11.3717C10.2638 11.3717 10.5614 11.2592 10.7895 11.0335C11.2496 10.5789 11.2542 9.8369 10.7997 9.37685C10.3451 8.91594 9.60306 8.91211 9.14301 9.3667Z" fill="#1F4B3F"/>
<path d="M14.1178 6.07605C13.5188 6.3213 13.2321 7.00544 13.4774 7.60382C13.6633 8.05762 14.1007 8.33256 14.5623 8.33256C14.7099 8.33256 14.8599 8.30444 15.0051 8.24508C15.6042 7.99982 15.8909 7.3156 15.6456 6.71652C15.4011 6.11822 14.7169 5.83071 14.1178 6.07605Z" fill="#1F4B3F"/>
<path d="M33.5723 24.4961C33.4262 24.4358 33.2755 24.4077 33.1263 24.4077C32.6663 24.4077 32.2288 24.6811 32.0429 25.1333C31.7961 25.7316 32.0812 26.4158 32.6795 26.6627C33.2777 26.9095 33.9628 26.6236 34.2096 26.0262C34.4557 25.4279 34.1706 24.7428 33.5723 24.4961Z" fill="#1F4B3F"/>
<path d="M30.075 28.9956C29.7735 28.9956 29.4728 29.1104 29.2432 29.3417C28.7878 29.801 28.7902 30.543 29.2494 30.9983C29.7087 31.4545 30.4507 31.4514 30.9061 30.9921V30.9929C31.3622 30.5336 31.3599 29.7916 30.9006 29.3355C30.6718 29.1089 30.3735 28.9956 30.075 28.9956Z" fill="#1F4B3F"/>
<path d="M25.5102 32.0793C25.3587 32.0793 25.2048 32.109 25.0564 32.1715C24.4597 32.4222 24.1801 33.1088 24.4308 33.7055C24.6815 34.3023 25.3681 34.582 25.9648 34.3313C26.5616 34.0805 26.8412 33.3931 26.5905 32.7971C26.4023 32.3488 25.9672 32.0793 25.5102 32.0793Z" fill="#1F4B3F"/>
<path d="M20.1123 33.1792C20.1107 33.1792 20.1091 33.1792 20.1068 33.1792C19.4601 33.1823 18.9375 33.7095 18.9414 34.3562C18.9446 35.0029 19.4718 35.5255 20.1185 35.5224C20.7652 35.5193 21.2878 34.9921 21.2839 34.3446C21.2816 33.6993 20.7575 33.1792 20.1123 33.1792Z" fill="#1F4B3F"/>
<path d="M29.4733 21.3832C30.1204 21.3832 30.6449 20.8587 30.6449 20.2116C30.6449 19.5646 30.1204 19.04 29.4733 19.04H23.2871C22.9335 18.0431 22.1424 17.2519 21.1454 16.8983V10.7226C21.1454 10.0756 20.6208 9.55103 19.9738 9.55103C19.3268 9.55103 18.8022 10.0756 18.8022 10.7226V16.8984C17.4385 17.382 16.459 18.6843 16.459 20.2117C16.459 22.1498 18.0357 23.7265 19.9738 23.7265C21.5012 23.7265 22.8035 22.747 23.2871 21.3833H29.4733V21.3832ZM19.9738 21.3832C19.3278 21.3832 18.8022 20.8576 18.8022 20.2116C18.8022 19.5656 19.3278 19.04 19.9738 19.04C20.6199 19.04 21.1454 19.5656 21.1454 20.2116C21.1454 20.8576 20.6198 21.3832 19.9738 21.3832Z" fill="#1F4B3F"/>
</g>
<defs>
<clipPath id="clip0_1_2612">
<rect width="40" height="40" fill="white" transform="translate(0.0439453 0.256348)"/>
</clipPath>
</defs>
</svg>
