<svg width="59" height="53" viewBox="0 0 59 53" fill="none" xmlns="http://www.w3.org/2000/svg">
<circle cx="38.0439" cy="32.2563" r="20" fill="#FBF7ED"/>
<g clip-path="url(#clip0_1_2603)">
<path d="M31.9631 27.8711H8.11426C7.46698 27.8711 6.94238 28.3957 6.94238 29.043C6.94238 29.6899 7.46698 30.2148 8.11426 30.2148H31.9631C32.6104 30.2148 33.135 29.6899 33.135 29.043C33.135 28.3957 32.6104 27.8711 31.9631 27.8711Z" fill="#1F4B3F"/>
<path d="M26.9424 32.8918H11.8799C11.2326 32.8918 10.708 33.4164 10.708 34.0637C10.708 34.7107 11.2326 35.2356 11.8799 35.2356H26.9424C27.5894 35.2356 28.1143 34.7107 28.1143 34.0637C28.1143 33.4164 27.5894 32.8918 26.9424 32.8918Z" fill="#1F4B3F"/>
<path d="M33.8458 2.76672H32.5073V1.42822C32.5073 0.780945 31.9827 0.256348 31.3354 0.256348C30.6885 0.256348 30.1636 0.780945 30.1636 1.42822V2.76672H24.9762V1.42822C24.9762 0.780945 24.4516 0.256348 23.8043 0.256348C23.157 0.256348 22.6324 0.780945 22.6324 1.42822V2.76672H17.4451V1.42822C17.4451 0.780945 16.9202 0.256348 16.2732 0.256348C15.6259 0.256348 15.1013 0.780945 15.1013 1.42822V2.76672H9.91364V1.42822C9.91364 0.780945 9.38904 0.256348 8.74176 0.256348C8.09479 0.256348 7.56989 0.780945 7.56989 1.42822V2.76672H6.23138C3.50891 2.76672 1.29395 4.98169 1.29395 7.70416V35.3189C1.29395 38.0414 3.50891 40.2563 6.23138 40.2563H33.8461C36.5686 40.2563 38.7836 38.0414 38.7836 35.3189V7.70416C38.7836 4.98169 36.5686 2.76672 33.8458 2.76672ZM36.4398 35.3189C36.4398 36.749 35.2762 37.9126 33.8461 37.9126H6.23138C4.80133 37.9126 3.6377 36.749 3.6377 35.3189V7.70416C3.6377 6.27411 4.80133 5.11047 6.23138 5.11047H7.56989V6.44897C7.56989 7.09625 8.09479 7.62085 8.74176 7.62085C9.38904 7.62085 9.91364 7.09625 9.91364 6.44897V5.11047H15.1013V6.44897C15.1013 7.09625 15.6259 7.62085 16.2732 7.62085C16.9202 7.62085 17.4451 7.09625 17.4451 6.44897V5.11047H22.6324V6.44897C22.6324 7.09625 23.157 7.62085 23.8043 7.62085C24.4516 7.62085 24.9762 7.09625 24.9762 6.44897V5.11047H30.1636V6.44897C30.1636 7.09625 30.6885 7.62085 31.3354 7.62085C31.9827 7.62085 32.5073 7.09625 32.5073 6.44897V5.11047H33.8461C35.2762 5.11047 36.4398 6.27411 36.4398 7.70416V35.3189Z" fill="#1F4B3F"/>
<path d="M18.4701 18.2901H21.6079C22.1728 18.2901 22.6327 18.75 22.6327 19.3149C22.6327 19.8801 22.1728 20.3397 21.6079 20.3397H17.5286C16.8813 20.3397 16.3568 20.8643 16.3568 21.5115C16.3568 22.1588 16.8813 22.6834 17.5286 22.6834H18.8671V24.0219C18.8671 24.6692 19.3917 25.1938 20.039 25.1938C20.6863 25.1938 21.2109 24.6692 21.2109 24.0219V22.6834H21.6079C23.4652 22.6834 24.9764 21.1722 24.9764 19.3149C24.9764 17.4576 23.4652 15.9464 21.6079 15.9464H18.4701C17.9049 15.9464 17.4453 15.4868 17.4453 14.9219C17.4453 14.3567 17.9049 13.8971 18.4701 13.8971H22.5494C23.1967 13.8971 23.7213 13.3722 23.7213 12.7252C23.7213 12.0779 23.1967 11.5533 22.5494 11.5533H21.2109V10.2148C21.2109 9.56757 20.6863 9.04297 20.039 9.04297C19.3917 9.04297 18.8671 9.56757 18.8671 10.2148V11.5533H18.4701C16.6125 11.5533 15.1016 13.0643 15.1016 14.9219C15.1016 16.7792 16.6125 18.2901 18.4701 18.2901Z" fill="#1F4B3F"/>
</g>
<defs>
<clipPath id="clip0_1_2603">
<rect width="40" height="40" fill="white" transform="translate(0.0439453 0.256348)"/>
</clipPath>
</defs>
</svg>
