<svg width="59" height="53" viewBox="0 0 59 53" fill="none" xmlns="http://www.w3.org/2000/svg">
<circle cx="38.0439" cy="32.2563" r="20" fill="#FBF7ED"/>
<g clip-path="url(#clip0_1_2640)">
<path d="M18.298 28.1866C18.5196 28.4079 18.8199 28.5324 19.1333 28.5324C19.4464 28.5324 19.7467 28.4082 19.9683 28.1866L24.1849 23.97C24.6463 23.5086 24.6463 22.7609 24.1849 22.2995C23.7238 21.8383 22.9758 21.8383 22.5147 22.2995L19.1333 25.6808L17.5916 24.1391C17.1301 23.6779 16.3825 23.6779 15.921 24.1391C15.4599 24.6002 15.4599 25.3482 15.921 25.8096L18.298 28.1866Z" fill="#1F4B3F"/>
<path d="M20.053 34.6191C25.223 34.6191 29.4289 30.4128 29.4289 25.2429C29.4289 20.0729 25.223 15.8669 20.053 15.8669C14.8827 15.8669 10.6768 20.0729 10.6768 25.2429C10.6768 30.4128 14.883 34.6191 20.053 34.6191ZM20.053 18.229C23.9205 18.229 27.0668 21.3754 27.0668 25.2429C27.0668 29.1104 23.9205 32.257 20.053 32.257C16.1855 32.257 13.0388 29.1104 13.0388 25.2429C13.0388 21.3754 16.1855 18.229 20.053 18.229Z" fill="#1F4B3F"/>
<path d="M35.7739 2.7713H33.6197V1.43738C33.6197 0.785217 33.0908 0.256348 32.4387 0.256348C31.7865 0.256348 31.2576 0.785217 31.2576 1.43738V2.7713H28.9368V1.43738C28.9368 0.785217 28.4079 0.256348 27.7554 0.256348C27.1033 0.256348 26.5744 0.785217 26.5744 1.43738V2.7713H13.5324V1.43738C13.5324 0.785217 13.0035 0.256348 12.3511 0.256348C11.6989 0.256348 11.17 0.785217 11.17 1.43738V2.7713H8.84918V1.43738C8.84918 0.785217 8.32031 0.256348 7.66785 0.256348C7.01569 0.256348 6.48682 0.785217 6.48682 1.43738V2.7713H4.33228C2.22626 2.7713 0.512695 4.48486 0.512695 6.59119V36.4368C0.512695 38.5428 2.22626 40.2563 4.33228 40.2563H35.7739C37.8802 40.2563 39.5935 38.5428 39.5935 36.4368V6.59119C39.5935 4.48486 37.8799 2.7713 35.7739 2.7713ZM37.2311 36.4368C37.2311 37.2403 36.5775 37.8943 35.7739 37.8943H4.33228C3.52875 37.8943 2.87476 37.2403 2.87476 36.4368V12.5922H37.2311V36.4368ZM2.87476 6.59119C2.87476 5.78735 3.52875 5.13367 4.33228 5.13367H6.48682V6.46759C6.48682 7.11975 7.01569 7.64862 7.66815 7.64862C8.32031 7.64862 8.84918 7.11975 8.84918 6.46759V5.13367H11.17V6.46759C11.17 7.11975 11.6989 7.64862 12.3514 7.64862C13.0035 7.64862 13.5324 7.11975 13.5324 6.46759V5.13367H26.5744V6.46759C26.5744 7.11975 27.1033 7.64862 27.7557 7.64862C28.4079 7.64862 28.9368 7.11975 28.9368 6.46759V5.13367H31.2576V6.46759C31.2576 7.11975 31.7865 7.64862 32.4387 7.64862C33.0911 7.64862 33.62 7.11975 33.62 6.46759V5.13367H35.7739C36.5775 5.13367 37.2314 5.78735 37.2314 6.59119V10.2298H2.87476V6.59119Z" fill="#1F4B3F"/>
</g>
<defs>
<clipPath id="clip0_1_2640">
<rect width="40" height="40" fill="white" transform="translate(0.0439453 0.256348)"/>
</clipPath>
</defs>
</svg>
