<svg width="18" height="18" viewBox="0 0 18 18" fill="none" xmlns="http://www.w3.org/2000/svg">
<path d="M8.70213 4.28071C11.1353 4.28071 13.1437 6.28906 13.1437 8.72225C13.1437 11.1941 11.1353 13.1638 8.70213 13.1638C6.23032 13.1638 4.26059 11.1941 4.26059 8.72225C4.26059 6.28906 6.23032 4.28071 8.70213 4.28071ZM8.70213 11.6189C10.2856 11.6189 11.5602 10.3444 11.5602 8.72225C11.5602 7.13875 10.2856 5.86422 8.70213 5.86422C7.08 5.86422 5.80547 7.13875 5.80547 8.72225C5.80547 10.3444 7.11862 11.6189 8.70213 11.6189ZM14.341 4.12622C14.341 4.70555 13.8775 5.16902 13.2982 5.16902C12.7188 5.16902 12.2554 4.70555 12.2554 4.12622C12.2554 3.54689 12.7188 3.08343 13.2982 3.08343C13.8775 3.08343 14.341 3.54689 14.341 4.12622ZM17.2762 5.16902C17.3535 6.59804 17.3535 10.8851 17.2762 12.3141C17.199 13.7045 16.89 14.9018 15.8858 15.9446C14.8817 16.9488 13.6458 17.2577 12.2554 17.335C10.8263 17.4122 6.53929 17.4122 5.11028 17.335C3.71988 17.2577 2.5226 16.9488 1.4798 15.9446C0.475624 14.9018 0.166648 13.7045 0.0894033 12.3141C0.0121592 10.8851 0.0121592 6.59804 0.0894033 5.16902C0.166648 3.77862 0.475624 2.54272 1.4798 1.53854C2.5226 0.534368 3.71988 0.225392 5.11028 0.148147C6.53929 0.0709033 10.8263 0.0709033 12.2554 0.148147C13.6458 0.225392 14.8817 0.534368 15.8858 1.53854C16.89 2.54272 17.199 3.77862 17.2762 5.16902ZM15.4224 13.8204C15.8858 12.7003 15.77 9.99678 15.77 8.72225C15.77 7.48635 15.8858 4.7828 15.4224 3.62414C15.1134 2.89032 14.5341 2.27236 13.8002 2.00201C12.6416 1.53854 9.93804 1.65441 8.70213 1.65441C7.4276 1.65441 4.72405 1.53854 3.60401 2.00201C2.83157 2.31098 2.25224 2.89032 1.94326 3.62414C1.4798 4.7828 1.59567 7.48635 1.59567 8.72225C1.59567 9.99678 1.4798 12.7003 1.94326 13.8204C2.25224 14.5928 2.83157 15.1721 3.60401 15.4811C4.72405 15.9446 7.4276 15.8287 8.70213 15.8287C9.93804 15.8287 12.6416 15.9446 13.8002 15.4811C14.5341 15.1721 15.152 14.5928 15.4224 13.8204Z" fill="#222222"/>
</svg>
