<svg width="19" height="19" viewBox="0 0 19 19" fill="none" xmlns="http://www.w3.org/2000/svg">
<path d="M4.64932 18.1377H1.05746V6.58969H4.64932V18.1377ZM2.83408 5.0448C1.71404 5.0448 0.787109 4.07925 0.787109 2.92059C0.787109 1.80055 1.71404 0.873618 2.83408 0.873618C3.99274 0.873618 4.91967 1.80055 4.91967 2.92059C4.91967 4.07925 3.99274 5.0448 2.83408 5.0448ZM18.0512 18.1377H14.498V12.5375C14.498 11.1857 14.4593 9.48635 12.6055 9.48635C10.7516 9.48635 10.4813 10.9154 10.4813 12.4216V18.1377H6.8894V6.58969H10.3268V8.17319H10.3654C10.8675 7.28489 12.0261 6.31933 13.7641 6.31933C17.3946 6.31933 18.0898 8.7139 18.0898 11.8037V18.1377H18.0512Z" fill="#222222"/>
</svg>
