<svg width="157" height="41" viewBox="0 0 157 41" fill="none" xmlns="http://www.w3.org/2000/svg">
<path d="M56.3301 27.7676V13.4396H51.4341V10.9676H64.3221V13.4396H59.4021V27.7676H56.3301ZM69.8989 28.0556C68.8429 28.0556 67.9149 27.8876 67.1149 27.5516C66.3149 27.1996 65.6749 26.7196 65.1949 26.1116C64.7149 25.5036 64.4269 24.7996 64.3309 23.9996H67.4269C67.5229 24.4636 67.7789 24.8636 68.1949 25.1996C68.6269 25.5196 69.1789 25.6796 69.8509 25.6796C70.5229 25.6796 71.0109 25.5436 71.3149 25.2716C71.6349 24.9996 71.7949 24.6876 71.7949 24.3356C71.7949 23.8236 71.5709 23.4796 71.1229 23.3036C70.6749 23.1116 70.0509 22.9276 69.2509 22.7516C68.7389 22.6396 68.2189 22.5036 67.6909 22.3436C67.1629 22.1836 66.6749 21.9836 66.2269 21.7436C65.7949 21.4876 65.4429 21.1676 65.1709 20.7836C64.8989 20.3836 64.7629 19.8956 64.7629 19.3196C64.7629 18.2636 65.1789 17.3756 66.0109 16.6556C66.8589 15.9356 68.0429 15.5756 69.5629 15.5756C70.9709 15.5756 72.0909 15.9036 72.9229 16.5596C73.7709 17.2156 74.2749 18.1196 74.4349 19.2716H71.5309C71.3549 18.3916 70.6909 17.9516 69.5389 17.9516C68.9629 17.9516 68.5149 18.0636 68.1949 18.2876C67.8909 18.5116 67.7389 18.7916 67.7389 19.1276C67.7389 19.4796 67.9709 19.7596 68.4349 19.9676C68.8989 20.1756 69.5149 20.3676 70.2829 20.5436C71.1149 20.7356 71.8749 20.9516 72.5629 21.1916C73.2669 21.4156 73.8269 21.7596 74.2429 22.2236C74.6589 22.6716 74.8669 23.3196 74.8669 24.1676C74.8829 24.9036 74.6909 25.5676 74.2909 26.1596C73.8909 26.7516 73.3149 27.2156 72.5629 27.5516C71.8109 27.8876 70.9229 28.0556 69.8989 28.0556ZM77.5883 27.7676V10.4876H80.6603V20.6876L84.8843 15.8636H88.5323L83.6603 21.2876L89.3243 27.7676H85.4843L80.6603 21.7916V27.7676H77.5883ZM91.2289 27.7676V15.8636H93.9649L94.2529 18.0956C94.6849 17.3276 95.2689 16.7196 96.0049 16.2716C96.7569 15.8076 97.6369 15.5756 98.6449 15.5756V18.8156H97.7809C97.1089 18.8156 96.5089 18.9196 95.9809 19.1276C95.4529 19.3356 95.0369 19.6956 94.7329 20.2076C94.4449 20.7196 94.3009 21.4316 94.3009 22.3436V27.7676H91.2289Z" fill="#222222"/>
<path d="M102.065 27.9356C101.505 27.9356 101.041 27.7596 100.673 27.4076C100.321 27.0556 100.145 26.6316 100.145 26.1356C100.145 25.6236 100.321 25.1916 100.673 24.8396C101.041 24.4876 101.505 24.3116 102.065 24.3116C102.625 24.3116 103.081 24.4876 103.433 24.8396C103.801 25.1916 103.985 25.6236 103.985 26.1356C103.985 26.6316 103.801 27.0556 103.433 27.4076C103.081 27.7596 102.625 27.9356 102.065 27.9356ZM112.342 28.0556C111.126 28.0556 110.054 27.7916 109.126 27.2636C108.198 26.7356 107.462 25.9996 106.918 25.0556C106.39 24.1116 106.126 23.0316 106.126 21.8156C106.126 20.5996 106.39 19.5196 106.918 18.5756C107.462 17.6316 108.198 16.8956 109.126 16.3676C110.054 15.8396 111.126 15.5756 112.342 15.5756C113.862 15.5756 115.142 15.9756 116.182 16.7756C117.222 17.5596 117.886 18.6476 118.174 20.0396H114.934C114.774 19.4636 114.454 19.0156 113.974 18.6956C113.51 18.3596 112.958 18.1916 112.318 18.1916C111.47 18.1916 110.75 18.5116 110.158 19.1516C109.566 19.7916 109.27 20.6796 109.27 21.8156C109.27 22.9516 109.566 23.8396 110.158 24.4796C110.75 25.1196 111.47 25.4396 112.318 25.4396C112.958 25.4396 113.51 25.2796 113.974 24.9596C114.454 24.6396 114.774 24.1836 114.934 23.5916H118.174C117.886 24.9356 117.222 26.0156 116.182 26.8316C115.142 27.6476 113.862 28.0556 112.342 28.0556ZM126.613 28.0556C125.461 28.0556 124.421 27.7916 123.493 27.2636C122.581 26.7356 121.853 26.0076 121.309 25.0796C120.781 24.1356 120.517 23.0476 120.517 21.8156C120.517 20.5836 120.789 19.5036 121.333 18.5756C121.877 17.6316 122.605 16.8956 123.517 16.3676C124.445 15.8396 125.485 15.5756 126.637 15.5756C127.773 15.5756 128.797 15.8396 129.709 16.3676C130.637 16.8956 131.365 17.6316 131.893 18.5756C132.437 19.5036 132.709 20.5836 132.709 21.8156C132.709 23.0476 132.437 24.1356 131.893 25.0796C131.365 26.0076 130.637 26.7356 129.709 27.2636C128.781 27.7916 127.749 28.0556 126.613 28.0556ZM126.613 25.3916C127.413 25.3916 128.109 25.0956 128.701 24.5036C129.293 23.8956 129.589 22.9996 129.589 21.8156C129.589 20.6316 129.293 19.7436 128.701 19.1516C128.109 18.5436 127.421 18.2396 126.637 18.2396C125.821 18.2396 125.117 18.5436 124.525 19.1516C123.949 19.7436 123.661 20.6316 123.661 21.8156C123.661 22.9996 123.949 23.8956 124.525 24.5036C125.117 25.0956 125.813 25.3916 126.613 25.3916ZM135.456 27.7676V15.8636H138.168L138.432 17.4716C138.816 16.8956 139.32 16.4396 139.944 16.1036C140.584 15.7516 141.32 15.5756 142.152 15.5756C143.992 15.5756 145.296 16.2876 146.064 17.7116C146.496 17.0556 147.072 16.5356 147.792 16.1516C148.528 15.7676 149.328 15.5756 150.192 15.5756C151.744 15.5756 152.936 16.0396 153.768 16.9676C154.6 17.8956 155.016 19.2556 155.016 21.0476V27.7676H151.944V21.3356C151.944 20.3116 151.744 19.5276 151.344 18.9836C150.96 18.4396 150.36 18.1676 149.544 18.1676C148.712 18.1676 148.04 18.4716 147.528 19.0796C147.032 19.6876 146.784 20.5356 146.784 21.6236V27.7676H143.712V21.3356C143.712 20.3116 143.512 19.5276 143.112 18.9836C142.712 18.4396 142.096 18.1676 141.264 18.1676C140.448 18.1676 139.784 18.4716 139.272 19.0796C138.776 19.6876 138.528 20.5356 138.528 21.6236V27.7676H135.456Z" fill="#5BBB7B"/>
<path fill-rule="evenodd" clip-rule="evenodd" d="M0.0361328 10.3027C0.0361328 4.77989 4.51329 0.302734 10.0361 0.302734H30.0361C35.559 0.302734 40.0361 4.77989 40.0361 10.3027V30.3027C40.0361 35.8256 35.559 40.3027 30.0361 40.3027H10.0361C4.51329 40.3027 0.0361328 35.8256 0.0361328 30.3027V10.3027ZM23.6729 31.8101C22.3887 31.8101 21.3471 31.4098 20.5481 30.6094C19.749 29.8089 19.3503 28.7396 19.3519 27.4016V8.89909H24.3009V14.9601H29.4068V19.054H24.3009V26.5429C24.3009 27.2944 24.6764 27.2935 25.3122 27.2919L25.4023 27.2918H29.4068V31.8126L23.6729 31.8101ZM10.6504 14.1192H16.6447V20.1135H10.6504V14.1192Z" fill="#5BBB7B"/>
</svg>
