<svg width="17" height="17" viewBox="0 0 17 17" fill="none" xmlns="http://www.w3.org/2000/svg">
<g clip-path="url(#clip0_201_68)">
<path d="M16.1903 0.256348H6.41257C6.1669 0.256348 5.96811 0.455139 5.96811 0.700806C5.96811 0.946473 6.1669 1.14526 6.41257 1.14526H15.1174L0.764984 15.4977C0.591359 15.6713 0.591359 15.9526 0.764984 16.1261C0.851776 16.2129 0.965526 16.2563 1.07923 16.2563C1.19294 16.2563 1.30665 16.2129 1.39348 16.1261L15.7459 1.77372V10.4786C15.7459 10.7243 15.9447 10.9231 16.1904 10.9231C16.436 10.9231 16.6348 10.7243 16.6348 10.4786V0.700806C16.6348 0.455139 16.436 0.256348 16.1903 0.256348Z" fill="#5BBB7B"/>
</g>
<defs>
<clipPath id="clip0_201_68">
<rect width="16" height="16" fill="white" transform="translate(0.634766 0.256348)"/>
</clipPath>
</defs>
</svg>
