<svg width="21" height="17" viewBox="0 0 21 17" fill="none" xmlns="http://www.w3.org/2000/svg">
<path d="M18.6299 4.70555C18.6299 4.89867 18.6299 5.05315 18.6299 5.24626C18.6299 10.6147 14.5746 16.7556 7.1205 16.7556C4.80318 16.7556 2.67896 16.0991 0.902344 14.9404C1.21132 14.979 1.5203 15.0177 1.8679 15.0177C3.76038 15.0177 5.49837 14.3611 6.88877 13.2797C5.11215 13.241 3.60589 12.0824 3.1038 10.4602C3.37416 10.4989 3.60589 10.5375 3.87625 10.5375C4.22384 10.5375 4.61006 10.4602 4.91904 10.383C3.06518 9.99678 1.67479 8.37465 1.67479 6.40493V6.3663C2.2155 6.67528 2.87207 6.82977 3.52865 6.86839C2.40861 6.13457 1.71341 4.89867 1.71341 3.50827C1.71341 2.73583 1.90652 2.04063 2.25412 1.4613C4.26247 3.89449 7.27499 5.51662 10.6351 5.70973C10.5579 5.40075 10.5192 5.09178 10.5192 4.7828C10.5192 2.54272 12.3345 0.727479 14.5746 0.727479C15.7332 0.727479 16.776 1.19094 17.5485 2.00201C18.4368 1.8089 19.3251 1.4613 20.0975 0.997834C19.7885 1.96339 19.1706 2.73583 18.3209 3.23792C19.132 3.16067 19.943 2.92894 20.6382 2.61996C20.0975 3.43103 19.4023 4.12622 18.6299 4.70555Z" fill="#222222"/>
</svg>
